<mxfile host="Electron" agent="Mozilla/5.0 (Windows NT 10.0; Win64; x64) AppleWebKit/537.36 (KHTML, like Gecko) draw.io/26.1.1 Chrome/132.0.6834.210 Electron/34.3.3 Safari/537.36" version="26.1.1" pages="2">
  <diagram id="3dNvur1H4uZeYRell5t8" name="架构图">
    <mxGraphModel dx="840" dy="596" grid="1" gridSize="10" guides="1" tooltips="1" connect="1" arrows="1" fold="1" page="1" pageScale="1" pageWidth="1169" pageHeight="827" math="0" shadow="0">
      <root>
        <mxCell id="Nu1IoTUh7k1bH7WrBe8l-0" />
        <mxCell id="Nu1IoTUh7k1bH7WrBe8l-1" parent="Nu1IoTUh7k1bH7WrBe8l-0" />
        <mxCell id="V1c8s2xFzw0FwsXnV_9n-0" value="UI&lt;br&gt;&amp;lt;View&amp;gt;" style="rounded=0;whiteSpace=wrap;html=1;verticalAlign=middle;fillColor=#d5e8d4;strokeColor=#82b366;" parent="Nu1IoTUh7k1bH7WrBe8l-1" vertex="1">
          <mxGeometry x="20" y="10" width="290" height="70" as="geometry" />
        </mxCell>
        <mxCell id="V1c8s2xFzw0FwsXnV_9n-1" value="" style="group;verticalAlign=bottom;" parent="Nu1IoTUh7k1bH7WrBe8l-1" vertex="1" connectable="0">
          <mxGeometry x="20" y="370" width="290" height="130" as="geometry" />
        </mxCell>
        <mxCell id="V1c8s2xFzw0FwsXnV_9n-2" value="数据源&lt;br&gt;&amp;lt;Model&amp;gt;" style="rounded=0;whiteSpace=wrap;html=1;verticalAlign=bottom;align=left;fillColor=#ffe6cc;strokeColor=#d79b00;" parent="V1c8s2xFzw0FwsXnV_9n-1" vertex="1">
          <mxGeometry width="290" height="130" as="geometry" />
        </mxCell>
        <mxCell id="V1c8s2xFzw0FwsXnV_9n-3" value="任务" style="shape=cylinder3;whiteSpace=wrap;html=1;boundedLbl=1;backgroundOutline=1;size=15;fillColor=#fff2cc;strokeColor=#d6b656;" parent="V1c8s2xFzw0FwsXnV_9n-1" vertex="1">
          <mxGeometry x="16" y="15" width="60" height="80" as="geometry" />
        </mxCell>
        <mxCell id="V1c8s2xFzw0FwsXnV_9n-4" value="成就" style="shape=cylinder3;whiteSpace=wrap;html=1;boundedLbl=1;backgroundOutline=1;size=15;fillColor=#fff2cc;strokeColor=#d6b656;" parent="V1c8s2xFzw0FwsXnV_9n-1" vertex="1">
          <mxGeometry x="115" y="15" width="60" height="80" as="geometry" />
        </mxCell>
        <mxCell id="V1c8s2xFzw0FwsXnV_9n-5" value="其它" style="shape=cylinder3;whiteSpace=wrap;html=1;boundedLbl=1;backgroundOutline=1;size=15;fillColor=#fff2cc;strokeColor=#d6b656;" parent="V1c8s2xFzw0FwsXnV_9n-1" vertex="1">
          <mxGeometry x="214" y="15" width="60" height="80" as="geometry" />
        </mxCell>
        <mxCell id="V1c8s2xFzw0FwsXnV_9n-6" value="" style="group;fillColor=#f8cecc;strokeColor=#b85450;" parent="Nu1IoTUh7k1bH7WrBe8l-1" vertex="1" connectable="0">
          <mxGeometry x="20" y="140" width="290" height="170" as="geometry" />
        </mxCell>
        <mxCell id="V1c8s2xFzw0FwsXnV_9n-7" value="红点系统" style="rounded=0;whiteSpace=wrap;html=1;verticalAlign=top;align=left;fillColor=#f8cecc;strokeColor=#b85450;" parent="V1c8s2xFzw0FwsXnV_9n-6" vertex="1">
          <mxGeometry width="290" height="170" as="geometry" />
        </mxCell>
        <mxCell id="V1c8s2xFzw0FwsXnV_9n-8" value="红点树" style="rounded=0;whiteSpace=wrap;html=1;verticalAlign=top;fillColor=#f8cecc;strokeColor=#b85450;" parent="V1c8s2xFzw0FwsXnV_9n-6" vertex="1">
          <mxGeometry x="10" y="40" width="270" height="115" as="geometry" />
        </mxCell>
        <mxCell id="V1c8s2xFzw0FwsXnV_9n-9" value="红点节点" style="ellipse;whiteSpace=wrap;html=1;aspect=fixed;fillColor=#f8cecc;strokeColor=#b85450;" parent="V1c8s2xFzw0FwsXnV_9n-6" vertex="1">
          <mxGeometry x="16" y="70" width="80" height="80" as="geometry" />
        </mxCell>
        <mxCell id="V1c8s2xFzw0FwsXnV_9n-10" value="红点节点" style="ellipse;whiteSpace=wrap;html=1;aspect=fixed;fillColor=#f8cecc;strokeColor=#b85450;" parent="V1c8s2xFzw0FwsXnV_9n-6" vertex="1">
          <mxGeometry x="105" y="70" width="80" height="80" as="geometry" />
        </mxCell>
        <mxCell id="V1c8s2xFzw0FwsXnV_9n-11" value="红点节点" style="ellipse;whiteSpace=wrap;html=1;aspect=fixed;fillColor=#f8cecc;strokeColor=#b85450;" parent="V1c8s2xFzw0FwsXnV_9n-6" vertex="1">
          <mxGeometry x="194" y="70" width="80" height="80" as="geometry" />
        </mxCell>
        <mxCell id="V1c8s2xFzw0FwsXnV_9n-12" value="" style="endArrow=classic;html=1;" parent="Nu1IoTUh7k1bH7WrBe8l-1" source="V1c8s2xFzw0FwsXnV_9n-10" target="V1c8s2xFzw0FwsXnV_9n-0" edge="1">
          <mxGeometry width="50" height="50" relative="1" as="geometry">
            <mxPoint x="102.60351015649826" y="223.6087448624694" as="sourcePoint" />
            <mxPoint x="159.0256410256411" y="100" as="targetPoint" />
          </mxGeometry>
        </mxCell>
        <mxCell id="V1c8s2xFzw0FwsXnV_9n-13" value="" style="endArrow=classic;html=1;" parent="Nu1IoTUh7k1bH7WrBe8l-1" source="V1c8s2xFzw0FwsXnV_9n-11" target="V1c8s2xFzw0FwsXnV_9n-0" edge="1">
          <mxGeometry width="50" height="50" relative="1" as="geometry">
            <mxPoint x="112.60351015649826" y="233.6087448624694" as="sourcePoint" />
            <mxPoint x="169.0256410256411" y="110" as="targetPoint" />
          </mxGeometry>
        </mxCell>
        <mxCell id="V1c8s2xFzw0FwsXnV_9n-14" value="" style="endArrow=classic;html=1;" parent="Nu1IoTUh7k1bH7WrBe8l-1" source="V1c8s2xFzw0FwsXnV_9n-9" target="V1c8s2xFzw0FwsXnV_9n-0" edge="1">
          <mxGeometry width="50" height="50" relative="1" as="geometry">
            <mxPoint x="130" y="220" as="sourcePoint" />
            <mxPoint x="180" y="170" as="targetPoint" />
          </mxGeometry>
        </mxCell>
        <mxCell id="V1c8s2xFzw0FwsXnV_9n-15" value="" style="endArrow=classic;html=1;" parent="Nu1IoTUh7k1bH7WrBe8l-1" source="V1c8s2xFzw0FwsXnV_9n-3" target="V1c8s2xFzw0FwsXnV_9n-9" edge="1">
          <mxGeometry width="50" height="50" relative="1" as="geometry">
            <mxPoint x="130" y="220" as="sourcePoint" />
            <mxPoint x="180" y="170" as="targetPoint" />
          </mxGeometry>
        </mxCell>
        <mxCell id="V1c8s2xFzw0FwsXnV_9n-16" value="" style="endArrow=classic;html=1;" parent="Nu1IoTUh7k1bH7WrBe8l-1" source="V1c8s2xFzw0FwsXnV_9n-4" target="V1c8s2xFzw0FwsXnV_9n-10" edge="1">
          <mxGeometry width="50" height="50" relative="1" as="geometry">
            <mxPoint x="78.22222222222217" y="380" as="sourcePoint" />
            <mxPoint x="83.78119921509892" y="279.93841412822076" as="targetPoint" />
          </mxGeometry>
        </mxCell>
        <mxCell id="V1c8s2xFzw0FwsXnV_9n-17" value="" style="endArrow=classic;html=1;" parent="Nu1IoTUh7k1bH7WrBe8l-1" source="V1c8s2xFzw0FwsXnV_9n-5" target="V1c8s2xFzw0FwsXnV_9n-11" edge="1">
          <mxGeometry width="50" height="50" relative="1" as="geometry">
            <mxPoint x="88.22222222222217" y="390" as="sourcePoint" />
            <mxPoint x="93.78119921509892" y="289.93841412822076" as="targetPoint" />
          </mxGeometry>
        </mxCell>
        <mxCell id="V1c8s2xFzw0FwsXnV_9n-18" value="绑定/事件响应" style="rounded=1;whiteSpace=wrap;html=1;fillColor=#dae8fc;strokeColor=#6c8ebf;" parent="Nu1IoTUh7k1bH7WrBe8l-1" vertex="1">
          <mxGeometry x="20" y="326" width="290" height="30" as="geometry" />
        </mxCell>
        <mxCell id="V1c8s2xFzw0FwsXnV_9n-19" value="绑定/事件响应" style="rounded=1;whiteSpace=wrap;html=1;fillColor=#dae8fc;strokeColor=#6c8ebf;" parent="Nu1IoTUh7k1bH7WrBe8l-1" vertex="1">
          <mxGeometry x="20" y="100" width="290" height="30" as="geometry" />
        </mxCell>
      </root>
    </mxGraphModel>
  </diagram>
  <diagram id="C5RBs43oDa-KdzZeNtuy" name="类图">
    <mxGraphModel dx="840" dy="596" grid="1" gridSize="10" guides="1" tooltips="1" connect="1" arrows="1" fold="1" page="1" pageScale="1" pageWidth="827" pageHeight="1169" math="0" shadow="0">
      <root>
        <mxCell id="WIyWlLk6GJQsqaUBKTNV-0" />
        <mxCell id="WIyWlLk6GJQsqaUBKTNV-1" parent="WIyWlLk6GJQsqaUBKTNV-0" />
        <mxCell id="zkfFHV4jXpPFQw0GAbJ--6" value="RedDotNode" style="swimlane;fontStyle=0;align=center;verticalAlign=top;childLayout=stackLayout;horizontal=1;startSize=26;horizontalStack=0;resizeParent=1;resizeLast=0;collapsible=1;marginBottom=0;rounded=0;shadow=0;strokeWidth=1;fillColor=#f8cecc;strokeColor=#b85450;" parent="WIyWlLk6GJQsqaUBKTNV-1" vertex="1">
          <mxGeometry x="165" y="60" width="290" height="372" as="geometry">
            <mxRectangle x="130" y="380" width="160" height="26" as="alternateBounds" />
          </mxGeometry>
        </mxCell>
        <mxCell id="zkfFHV4jXpPFQw0GAbJ--7" value="+ readonly string Key;" style="text;align=left;verticalAlign=top;spacingLeft=4;spacingRight=4;overflow=hidden;rotatable=0;points=[[0,0.5],[1,0.5]];portConstraint=eastwest;" parent="zkfFHV4jXpPFQw0GAbJ--6" vertex="1">
          <mxGeometry y="26" width="290" height="26" as="geometry" />
        </mxCell>
        <mxCell id="k_fp_--4jrFylW4d2MIr-26" value="+ readonly string SubKey;" style="text;align=left;verticalAlign=top;spacingLeft=4;spacingRight=4;overflow=hidden;rotatable=0;points=[[0,0.5],[1,0.5]];portConstraint=eastwest;" parent="zkfFHV4jXpPFQw0GAbJ--6" vertex="1">
          <mxGeometry y="52" width="290" height="26" as="geometry" />
        </mxCell>
        <mxCell id="zkfFHV4jXpPFQw0GAbJ--8" value="+ int SelfDotCount { get; - set; }" style="text;align=left;verticalAlign=top;spacingLeft=4;spacingRight=4;overflow=hidden;rotatable=0;points=[[0,0.5],[1,0.5]];portConstraint=eastwest;rounded=0;shadow=0;html=0;" parent="zkfFHV4jXpPFQw0GAbJ--6" vertex="1">
          <mxGeometry y="78" width="290" height="26" as="geometry" />
        </mxCell>
        <mxCell id="k_fp_--4jrFylW4d2MIr-27" value="+ int SubDotCount { get; - set; }" style="text;align=left;verticalAlign=top;spacingLeft=4;spacingRight=4;overflow=hidden;rotatable=0;points=[[0,0.5],[1,0.5]];portConstraint=eastwest;rounded=0;shadow=0;html=0;" parent="zkfFHV4jXpPFQw0GAbJ--6" vertex="1">
          <mxGeometry y="104" width="290" height="26" as="geometry" />
        </mxCell>
        <mxCell id="k_fp_--4jrFylW4d2MIr-28" value="+ int TotalDotCount { get; }" style="text;align=left;verticalAlign=top;spacingLeft=4;spacingRight=4;overflow=hidden;rotatable=0;points=[[0,0.5],[1,0.5]];portConstraint=eastwest;rounded=0;shadow=0;html=0;" parent="zkfFHV4jXpPFQw0GAbJ--6" vertex="1">
          <mxGeometry y="130" width="290" height="26" as="geometry" />
        </mxCell>
        <mxCell id="k_fp_--4jrFylW4d2MIr-29" value="+ bool IsEnable { get; }" style="text;align=left;verticalAlign=top;spacingLeft=4;spacingRight=4;overflow=hidden;rotatable=0;points=[[0,0.5],[1,0.5]];portConstraint=eastwest;rounded=0;shadow=0;html=0;" parent="zkfFHV4jXpPFQw0GAbJ--6" vertex="1">
          <mxGeometry y="156" width="290" height="26" as="geometry" />
        </mxCell>
        <mxCell id="k_fp_--4jrFylW4d2MIr-30" value="+ RedDotNode Parent;" style="text;align=left;verticalAlign=top;spacingLeft=4;spacingRight=4;overflow=hidden;rotatable=0;points=[[0,0.5],[1,0.5]];portConstraint=eastwest;rounded=0;shadow=0;html=0;" parent="zkfFHV4jXpPFQw0GAbJ--6" vertex="1">
          <mxGeometry y="182" width="290" height="26" as="geometry" />
        </mxCell>
        <mxCell id="k_fp_--4jrFylW4d2MIr-31" value="+ readonly List&lt;RedDotNode&gt; Children;" style="text;align=left;verticalAlign=top;spacingLeft=4;spacingRight=4;overflow=hidden;rotatable=0;points=[[0,0.5],[1,0.5]];portConstraint=eastwest;rounded=0;shadow=0;html=0;" parent="zkfFHV4jXpPFQw0GAbJ--6" vertex="1">
          <mxGeometry y="208" width="290" height="26" as="geometry" />
        </mxCell>
        <mxCell id="zkfFHV4jXpPFQw0GAbJ--9" value="" style="line;html=1;strokeWidth=1;align=left;verticalAlign=middle;spacingTop=-1;spacingLeft=3;spacingRight=3;rotatable=0;labelPosition=right;points=[];portConstraint=eastwest;" parent="zkfFHV4jXpPFQw0GAbJ--6" vertex="1">
          <mxGeometry y="234" width="290" height="8" as="geometry" />
        </mxCell>
        <mxCell id="zkfFHV4jXpPFQw0GAbJ--10" value="+ RedDotNode(string key, int selfDotCount = 0);" style="text;align=left;verticalAlign=top;spacingLeft=4;spacingRight=4;overflow=hidden;rotatable=0;points=[[0,0.5],[1,0.5]];portConstraint=eastwest;fontStyle=0" parent="zkfFHV4jXpPFQw0GAbJ--6" vertex="1">
          <mxGeometry y="242" width="290" height="26" as="geometry" />
        </mxCell>
        <mxCell id="k_fp_--4jrFylW4d2MIr-32" value="+ void AddChild(RedDotNode child);" style="text;align=left;verticalAlign=top;spacingLeft=4;spacingRight=4;overflow=hidden;rotatable=0;points=[[0,0.5],[1,0.5]];portConstraint=eastwest;rounded=0;shadow=0;html=0;" parent="zkfFHV4jXpPFQw0GAbJ--6" vertex="1">
          <mxGeometry y="268" width="290" height="26" as="geometry" />
        </mxCell>
        <mxCell id="zkfFHV4jXpPFQw0GAbJ--11" value="+ bool SetSelfDotCount(int selfDotCount);" style="text;align=left;verticalAlign=top;spacingLeft=4;spacingRight=4;overflow=hidden;rotatable=0;points=[[0,0.5],[1,0.5]];portConstraint=eastwest;" parent="zkfFHV4jXpPFQw0GAbJ--6" vertex="1">
          <mxGeometry y="294" width="290" height="26" as="geometry" />
        </mxCell>
        <mxCell id="k_fp_--4jrFylW4d2MIr-33" value="+ bool Refresh();" style="text;align=left;verticalAlign=top;spacingLeft=4;spacingRight=4;overflow=hidden;rotatable=0;points=[[0,0.5],[1,0.5]];portConstraint=eastwest;" parent="zkfFHV4jXpPFQw0GAbJ--6" vertex="1">
          <mxGeometry y="320" width="290" height="26" as="geometry" />
        </mxCell>
        <mxCell id="k_fp_--4jrFylW4d2MIr-34" value="+ override string ToString();" style="text;align=left;verticalAlign=top;spacingLeft=4;spacingRight=4;overflow=hidden;rotatable=0;points=[[0,0.5],[1,0.5]];portConstraint=eastwest;" parent="zkfFHV4jXpPFQw0GAbJ--6" vertex="1">
          <mxGeometry y="346" width="290" height="26" as="geometry" />
        </mxCell>
        <mxCell id="zkfFHV4jXpPFQw0GAbJ--12" value="" style="endArrow=classic;endSize=10;endFill=1;shadow=0;strokeWidth=1;rounded=0;edgeStyle=elbowEdgeStyle;elbow=vertical;exitX=0;exitY=0.5;exitDx=0;exitDy=0;startArrow=classic;startFill=1;" parent="zkfFHV4jXpPFQw0GAbJ--6" source="k_fp_--4jrFylW4d2MIr-30" target="zkfFHV4jXpPFQw0GAbJ--6" edge="1">
          <mxGeometry width="160" relative="1" as="geometry">
            <mxPoint x="100" y="-167" as="sourcePoint" />
            <mxPoint x="-50" y="180" as="targetPoint" />
            <Array as="points">
              <mxPoint x="-30" y="10" />
              <mxPoint x="-50" y="140" />
            </Array>
          </mxGeometry>
        </mxCell>
        <mxCell id="k_fp_--4jrFylW4d2MIr-44" style="edgeStyle=orthogonalEdgeStyle;rounded=0;orthogonalLoop=1;jettySize=auto;html=1;endArrow=classic;endFill=1;" parent="WIyWlLk6GJQsqaUBKTNV-1" source="zkfFHV4jXpPFQw0GAbJ--13" target="zkfFHV4jXpPFQw0GAbJ--6" edge="1">
          <mxGeometry relative="1" as="geometry" />
        </mxCell>
        <mxCell id="zkfFHV4jXpPFQw0GAbJ--13" value="RedDotTree" style="swimlane;fontStyle=0;align=center;verticalAlign=top;childLayout=stackLayout;horizontal=1;startSize=26;horizontalStack=0;resizeParent=1;resizeLast=0;collapsible=1;marginBottom=0;rounded=0;shadow=0;strokeWidth=1;fillColor=#f8cecc;strokeColor=#b85450;" parent="WIyWlLk6GJQsqaUBKTNV-1" vertex="1">
          <mxGeometry x="130" y="490" width="360" height="284" as="geometry">
            <mxRectangle x="340" y="380" width="170" height="26" as="alternateBounds" />
          </mxGeometry>
        </mxCell>
        <mxCell id="zkfFHV4jXpPFQw0GAbJ--14" value="- readonly RedDotNode _root;" style="text;align=left;verticalAlign=top;spacingLeft=4;spacingRight=4;overflow=hidden;rotatable=0;points=[[0,0.5],[1,0.5]];portConstraint=eastwest;" parent="zkfFHV4jXpPFQw0GAbJ--13" vertex="1">
          <mxGeometry y="26" width="360" height="26" as="geometry" />
        </mxCell>
        <mxCell id="k_fp_--4jrFylW4d2MIr-35" value="- readonly Dictionary&lt;string, RedDotNode&gt; _nodes;" style="text;align=left;verticalAlign=top;spacingLeft=4;spacingRight=4;overflow=hidden;rotatable=0;points=[[0,0.5],[1,0.5]];portConstraint=eastwest;" parent="zkfFHV4jXpPFQw0GAbJ--13" vertex="1">
          <mxGeometry y="52" width="360" height="26" as="geometry" />
        </mxCell>
        <mxCell id="zkfFHV4jXpPFQw0GAbJ--15" value="" style="line;html=1;strokeWidth=1;align=left;verticalAlign=middle;spacingTop=-1;spacingLeft=3;spacingRight=3;rotatable=0;labelPosition=right;points=[];portConstraint=eastwest;" parent="zkfFHV4jXpPFQw0GAbJ--13" vertex="1">
          <mxGeometry y="78" width="360" height="8" as="geometry" />
        </mxCell>
        <mxCell id="k_fp_--4jrFylW4d2MIr-36" value="+ RedDotTree();" style="text;align=left;verticalAlign=top;spacingLeft=4;spacingRight=4;overflow=hidden;rotatable=0;points=[[0,0.5],[1,0.5]];portConstraint=eastwest;fontStyle=0" parent="zkfFHV4jXpPFQw0GAbJ--13" vertex="1">
          <mxGeometry y="86" width="360" height="26" as="geometry" />
        </mxCell>
        <mxCell id="k_fp_--4jrFylW4d2MIr-37" value="+ List&lt;RedDotNode&gt; Refresh();" style="text;align=left;verticalAlign=top;spacingLeft=4;spacingRight=4;overflow=hidden;rotatable=0;points=[[0,0.5],[1,0.5]];portConstraint=eastwest;fontStyle=0" parent="zkfFHV4jXpPFQw0GAbJ--13" vertex="1">
          <mxGeometry y="112" width="360" height="26" as="geometry" />
        </mxCell>
        <mxCell id="k_fp_--4jrFylW4d2MIr-38" value="+ bool Contains(string key);" style="text;align=left;verticalAlign=top;spacingLeft=4;spacingRight=4;overflow=hidden;rotatable=0;points=[[0,0.5],[1,0.5]];portConstraint=eastwest;fontStyle=0" parent="zkfFHV4jXpPFQw0GAbJ--13" vertex="1">
          <mxGeometry y="138" width="360" height="26" as="geometry" />
        </mxCell>
        <mxCell id="k_fp_--4jrFylW4d2MIr-39" value="+ RedDotNode AddNode(string key, int selfDotCount = 0)" style="text;align=left;verticalAlign=top;spacingLeft=4;spacingRight=4;overflow=hidden;rotatable=0;points=[[0,0.5],[1,0.5]];portConstraint=eastwest;fontStyle=0" parent="zkfFHV4jXpPFQw0GAbJ--13" vertex="1">
          <mxGeometry y="164" width="360" height="26" as="geometry" />
        </mxCell>
        <mxCell id="k_fp_--4jrFylW4d2MIr-40" value="+ bool RemoveNode(string key);" style="text;align=left;verticalAlign=top;spacingLeft=4;spacingRight=4;overflow=hidden;rotatable=0;points=[[0,0.5],[1,0.5]];portConstraint=eastwest;fontStyle=0" parent="zkfFHV4jXpPFQw0GAbJ--13" vertex="1">
          <mxGeometry y="190" width="360" height="30" as="geometry" />
        </mxCell>
        <mxCell id="k_fp_--4jrFylW4d2MIr-42" value="+ List&lt;RedDotNode&gt; SetDotNodeSelfDotCount(string key, int selfDotCount);" style="text;align=left;verticalAlign=top;spacingLeft=4;spacingRight=4;overflow=hidden;rotatable=0;points=[[0,0.5],[1,0.5]];portConstraint=eastwest;fontStyle=0" parent="zkfFHV4jXpPFQw0GAbJ--13" vertex="1">
          <mxGeometry y="220" width="360" height="30" as="geometry" />
        </mxCell>
        <mxCell id="k_fp_--4jrFylW4d2MIr-43" value="+ override string ToString();" style="text;align=left;verticalAlign=top;spacingLeft=4;spacingRight=4;overflow=hidden;rotatable=0;points=[[0,0.5],[1,0.5]];portConstraint=eastwest;fontStyle=0" parent="zkfFHV4jXpPFQw0GAbJ--13" vertex="1">
          <mxGeometry y="250" width="360" height="30" as="geometry" />
        </mxCell>
        <mxCell id="zkfFHV4jXpPFQw0GAbJ--17" value="IRedDotUI&#xa;&lt;Interface&gt;" style="swimlane;fontStyle=0;align=center;verticalAlign=top;childLayout=stackLayout;horizontal=1;startSize=40;horizontalStack=0;resizeParent=1;resizeLast=0;collapsible=1;marginBottom=0;rounded=0;shadow=0;strokeWidth=1;fillColor=#d5e8d4;strokeColor=#82b366;" parent="WIyWlLk6GJQsqaUBKTNV-1" vertex="1">
          <mxGeometry x="680" y="250" width="280" height="100" as="geometry">
            <mxRectangle x="550" y="140" width="160" height="26" as="alternateBounds" />
          </mxGeometry>
        </mxCell>
        <mxCell id="zkfFHV4jXpPFQw0GAbJ--18" value="+ string RedDotKey { get; }" style="text;align=left;verticalAlign=top;spacingLeft=4;spacingRight=4;overflow=hidden;rotatable=0;points=[[0,0.5],[1,0.5]];portConstraint=eastwest;" parent="zkfFHV4jXpPFQw0GAbJ--17" vertex="1">
          <mxGeometry y="40" width="280" height="26" as="geometry" />
        </mxCell>
        <mxCell id="zkfFHV4jXpPFQw0GAbJ--23" value="" style="line;html=1;strokeWidth=1;align=left;verticalAlign=middle;spacingTop=-1;spacingLeft=3;spacingRight=3;rotatable=0;labelPosition=right;points=[];portConstraint=eastwest;" parent="zkfFHV4jXpPFQw0GAbJ--17" vertex="1">
          <mxGeometry y="66" width="280" height="8" as="geometry" />
        </mxCell>
        <mxCell id="zkfFHV4jXpPFQw0GAbJ--19" value="+ void SetRedDotState(bool active, int dotCount);" style="text;align=left;verticalAlign=top;spacingLeft=4;spacingRight=4;overflow=hidden;rotatable=0;points=[[0,0.5],[1,0.5]];portConstraint=eastwest;rounded=0;shadow=0;html=0;" parent="zkfFHV4jXpPFQw0GAbJ--17" vertex="1">
          <mxGeometry y="74" width="280" height="26" as="geometry" />
        </mxCell>
        <mxCell id="k_fp_--4jrFylW4d2MIr-0" value="IRedDotDataSource&#xa;&lt;Interface&gt;" style="swimlane;fontStyle=0;align=center;verticalAlign=top;childLayout=stackLayout;horizontal=1;startSize=40;horizontalStack=0;resizeParent=1;resizeLast=0;collapsible=1;marginBottom=0;rounded=0;shadow=0;strokeWidth=1;fillColor=#ffe6cc;strokeColor=#d79b00;" parent="WIyWlLk6GJQsqaUBKTNV-1" vertex="1">
          <mxGeometry x="650" y="810" width="320" height="140" as="geometry">
            <mxRectangle x="550" y="140" width="160" height="26" as="alternateBounds" />
          </mxGeometry>
        </mxCell>
        <mxCell id="k_fp_--4jrFylW4d2MIr-18" value="+ string RedDotKey { get; }" style="text;align=left;verticalAlign=top;spacingLeft=4;spacingRight=4;overflow=hidden;rotatable=0;points=[[0,0.5],[1,0.5]];portConstraint=eastwest;" parent="k_fp_--4jrFylW4d2MIr-0" vertex="1">
          <mxGeometry y="40" width="320" height="26" as="geometry" />
        </mxCell>
        <mxCell id="k_fp_--4jrFylW4d2MIr-19" value="+ int RedDotCount { get; }" style="text;align=left;verticalAlign=top;spacingLeft=4;spacingRight=4;overflow=hidden;rotatable=0;points=[[0,0.5],[1,0.5]];portConstraint=eastwest;" parent="k_fp_--4jrFylW4d2MIr-0" vertex="1">
          <mxGeometry y="66" width="320" height="26" as="geometry" />
        </mxCell>
        <mxCell id="k_fp_--4jrFylW4d2MIr-1" value="+ Action&lt;string, int&gt; OnRedDotCountChanged {get; set; }" style="text;align=left;verticalAlign=top;spacingLeft=4;spacingRight=4;overflow=hidden;rotatable=0;points=[[0,0.5],[1,0.5]];portConstraint=eastwest;" parent="k_fp_--4jrFylW4d2MIr-0" vertex="1">
          <mxGeometry y="92" width="320" height="26" as="geometry" />
        </mxCell>
        <mxCell id="k_fp_--4jrFylW4d2MIr-6" value="" style="line;html=1;strokeWidth=1;align=left;verticalAlign=middle;spacingTop=-1;spacingLeft=3;spacingRight=3;rotatable=0;labelPosition=right;points=[];portConstraint=eastwest;" parent="k_fp_--4jrFylW4d2MIr-0" vertex="1">
          <mxGeometry y="118" width="320" height="8" as="geometry" />
        </mxCell>
        <mxCell id="k_fp_--4jrFylW4d2MIr-9" value="RedDotManager&#xa;&lt;MonoBehaviour&gt;&#xa;&lt;Instance&gt;" style="swimlane;fontStyle=0;align=center;verticalAlign=top;childLayout=stackLayout;horizontal=1;startSize=50;horizontalStack=0;resizeParent=1;resizeLast=0;collapsible=1;marginBottom=0;rounded=0;shadow=0;strokeWidth=1;fillColor=#f8cecc;strokeColor=#b85450;" parent="WIyWlLk6GJQsqaUBKTNV-1" vertex="1">
          <mxGeometry x="600" y="417" width="420" height="370" as="geometry">
            <mxRectangle x="550" y="140" width="160" height="26" as="alternateBounds" />
          </mxGeometry>
        </mxCell>
        <mxCell id="k_fp_--4jrFylW4d2MIr-11" value="- readonly Dictionary&lt;string, IRedDotUI&gt; _redDotUIDict;" style="text;align=left;verticalAlign=top;spacingLeft=4;spacingRight=4;overflow=hidden;rotatable=0;points=[[0,0.5],[1,0.5]];portConstraint=eastwest;rounded=0;shadow=0;html=0;" parent="k_fp_--4jrFylW4d2MIr-9" vertex="1">
          <mxGeometry y="50" width="420" height="26" as="geometry" />
        </mxCell>
        <mxCell id="k_fp_--4jrFylW4d2MIr-12" value="- RedDotTree _redDotTree;" style="text;align=left;verticalAlign=top;spacingLeft=4;spacingRight=4;overflow=hidden;rotatable=0;points=[[0,0.5],[1,0.5]];portConstraint=eastwest;rounded=0;shadow=0;html=0;" parent="k_fp_--4jrFylW4d2MIr-9" vertex="1">
          <mxGeometry y="76" width="420" height="26" as="geometry" />
        </mxCell>
        <mxCell id="k_fp_--4jrFylW4d2MIr-10" value="- readonly Dictionary&lt;string, IRedDotDataSource&gt; _redDotDataSourceDict;" style="text;align=left;verticalAlign=top;spacingLeft=4;spacingRight=4;overflow=hidden;rotatable=0;points=[[0,0.5],[1,0.5]];portConstraint=eastwest;" parent="k_fp_--4jrFylW4d2MIr-9" vertex="1">
          <mxGeometry y="102" width="420" height="26" as="geometry" />
        </mxCell>
        <mxCell id="k_fp_--4jrFylW4d2MIr-15" value="" style="line;html=1;strokeWidth=1;align=left;verticalAlign=middle;spacingTop=-1;spacingLeft=3;spacingRight=3;rotatable=0;labelPosition=right;points=[];portConstraint=eastwest;" parent="k_fp_--4jrFylW4d2MIr-9" vertex="1">
          <mxGeometry y="128" width="420" height="8" as="geometry" />
        </mxCell>
        <mxCell id="k_fp_--4jrFylW4d2MIr-16" value="+ void BindRedDotDataSource(IRedDotDataSource redDotDataSource);" style="text;align=left;verticalAlign=top;spacingLeft=4;spacingRight=4;overflow=hidden;rotatable=0;points=[[0,0.5],[1,0.5]];portConstraint=eastwest;" parent="k_fp_--4jrFylW4d2MIr-9" vertex="1">
          <mxGeometry y="136" width="420" height="26" as="geometry" />
        </mxCell>
        <mxCell id="k_fp_--4jrFylW4d2MIr-17" value="+ void UnbindRedDotDataSource(string key);" style="text;align=left;verticalAlign=top;spacingLeft=4;spacingRight=4;overflow=hidden;rotatable=0;points=[[0,0.5],[1,0.5]];portConstraint=eastwest;" parent="k_fp_--4jrFylW4d2MIr-9" vertex="1">
          <mxGeometry y="162" width="420" height="26" as="geometry" />
        </mxCell>
        <mxCell id="k_fp_--4jrFylW4d2MIr-45" value="- OnRedDotCountChangedHandler(string redDotKey, int redDotCount);" style="text;align=left;verticalAlign=top;spacingLeft=4;spacingRight=4;overflow=hidden;rotatable=0;points=[[0,0.5],[1,0.5]];portConstraint=eastwest;" parent="k_fp_--4jrFylW4d2MIr-9" vertex="1">
          <mxGeometry y="188" width="420" height="26" as="geometry" />
        </mxCell>
        <mxCell id="k_fp_--4jrFylW4d2MIr-47" value="+ void BindAllRedDotUI(GameObject rootObject);" style="text;align=left;verticalAlign=top;spacingLeft=4;spacingRight=4;overflow=hidden;rotatable=0;points=[[0,0.5],[1,0.5]];portConstraint=eastwest;" parent="k_fp_--4jrFylW4d2MIr-9" vertex="1">
          <mxGeometry y="214" width="420" height="26" as="geometry" />
        </mxCell>
        <mxCell id="k_fp_--4jrFylW4d2MIr-46" value="+ void BindRedDotUI(IRedDotUI redDotUI);" style="text;align=left;verticalAlign=top;spacingLeft=4;spacingRight=4;overflow=hidden;rotatable=0;points=[[0,0.5],[1,0.5]];portConstraint=eastwest;" parent="k_fp_--4jrFylW4d2MIr-9" vertex="1">
          <mxGeometry y="240" width="420" height="26" as="geometry" />
        </mxCell>
        <mxCell id="k_fp_--4jrFylW4d2MIr-48" value="+ void UnbindRedDotUI(string key);" style="text;align=left;verticalAlign=top;spacingLeft=4;spacingRight=4;overflow=hidden;rotatable=0;points=[[0,0.5],[1,0.5]];portConstraint=eastwest;" parent="k_fp_--4jrFylW4d2MIr-9" vertex="1">
          <mxGeometry y="266" width="420" height="26" as="geometry" />
        </mxCell>
        <mxCell id="k_fp_--4jrFylW4d2MIr-49" value="- void RefreshRedDotUI(RedDotNode node);" style="text;align=left;verticalAlign=top;spacingLeft=4;spacingRight=4;overflow=hidden;rotatable=0;points=[[0,0.5],[1,0.5]];portConstraint=eastwest;" parent="k_fp_--4jrFylW4d2MIr-9" vertex="1">
          <mxGeometry y="292" width="420" height="26" as="geometry" />
        </mxCell>
        <mxCell id="k_fp_--4jrFylW4d2MIr-50" value="+ void RefreshAll();" style="text;align=left;verticalAlign=top;spacingLeft=4;spacingRight=4;overflow=hidden;rotatable=0;points=[[0,0.5],[1,0.5]];portConstraint=eastwest;" parent="k_fp_--4jrFylW4d2MIr-9" vertex="1">
          <mxGeometry y="318" width="420" height="26" as="geometry" />
        </mxCell>
        <mxCell id="k_fp_--4jrFylW4d2MIr-51" value="+ bool RemoveRedDot(string key);" style="text;align=left;verticalAlign=top;spacingLeft=4;spacingRight=4;overflow=hidden;rotatable=0;points=[[0,0.5],[1,0.5]];portConstraint=eastwest;" parent="k_fp_--4jrFylW4d2MIr-9" vertex="1">
          <mxGeometry y="344" width="420" height="26" as="geometry" />
        </mxCell>
        <mxCell id="k_fp_--4jrFylW4d2MIr-20" value="RedDotView&#xa;&lt;MonoBehaviour&gt;" style="swimlane;fontStyle=0;align=center;verticalAlign=top;childLayout=stackLayout;horizontal=1;startSize=35;horizontalStack=0;resizeParent=1;resizeLast=0;collapsible=1;marginBottom=0;rounded=0;shadow=0;strokeWidth=1;fillColor=#d5e8d4;strokeColor=#82b366;" parent="WIyWlLk6GJQsqaUBKTNV-1" vertex="1">
          <mxGeometry x="680" y="60" width="280" height="125" as="geometry">
            <mxRectangle x="340" y="380" width="170" height="26" as="alternateBounds" />
          </mxGeometry>
        </mxCell>
        <mxCell id="k_fp_--4jrFylW4d2MIr-24" value="+ string RedDotKey { get; }" style="text;align=left;verticalAlign=top;spacingLeft=4;spacingRight=4;overflow=hidden;rotatable=0;points=[[0,0.5],[1,0.5]];portConstraint=eastwest;" parent="k_fp_--4jrFylW4d2MIr-20" vertex="1">
          <mxGeometry y="35" width="280" height="26" as="geometry" />
        </mxCell>
        <mxCell id="k_fp_--4jrFylW4d2MIr-22" value="" style="line;html=1;strokeWidth=1;align=left;verticalAlign=middle;spacingTop=-1;spacingLeft=3;spacingRight=3;rotatable=0;labelPosition=right;points=[];portConstraint=eastwest;" parent="k_fp_--4jrFylW4d2MIr-20" vertex="1">
          <mxGeometry y="61" width="280" height="8" as="geometry" />
        </mxCell>
        <mxCell id="k_fp_--4jrFylW4d2MIr-25" value="+ void SetRedDotState(bool active, int dotCount);" style="text;align=left;verticalAlign=top;spacingLeft=4;spacingRight=4;overflow=hidden;rotatable=0;points=[[0,0.5],[1,0.5]];portConstraint=eastwest;rounded=0;shadow=0;html=0;" parent="k_fp_--4jrFylW4d2MIr-20" vertex="1">
          <mxGeometry y="69" width="280" height="26" as="geometry" />
        </mxCell>
        <mxCell id="xofms_eeU2WcZ_YOBVaL-7" value="..." style="text;align=left;verticalAlign=top;spacingLeft=4;spacingRight=4;overflow=hidden;rotatable=0;points=[[0,0.5],[1,0.5]];portConstraint=eastwest;fontStyle=0" parent="k_fp_--4jrFylW4d2MIr-20" vertex="1">
          <mxGeometry y="95" width="280" height="30" as="geometry" />
        </mxCell>
        <mxCell id="k_fp_--4jrFylW4d2MIr-23" value="" style="endArrow=block;endSize=10;endFill=0;shadow=0;strokeWidth=1;rounded=0;edgeStyle=elbowEdgeStyle;elbow=vertical;" parent="WIyWlLk6GJQsqaUBKTNV-1" source="zkfFHV4jXpPFQw0GAbJ--17" target="k_fp_--4jrFylW4d2MIr-20" edge="1">
          <mxGeometry width="160" relative="1" as="geometry">
            <mxPoint x="270" y="550" as="sourcePoint" />
            <mxPoint x="680" y="430" as="targetPoint" />
          </mxGeometry>
        </mxCell>
        <mxCell id="k_fp_--4jrFylW4d2MIr-53" style="edgeStyle=orthogonalEdgeStyle;rounded=0;orthogonalLoop=1;jettySize=auto;html=1;exitX=0;exitY=0.5;exitDx=0;exitDy=0;endArrow=classic;endFill=1;" parent="WIyWlLk6GJQsqaUBKTNV-1" source="k_fp_--4jrFylW4d2MIr-12" target="zkfFHV4jXpPFQw0GAbJ--13" edge="1">
          <mxGeometry relative="1" as="geometry">
            <Array as="points">
              <mxPoint x="500" y="506" />
              <mxPoint x="500" y="506" />
            </Array>
          </mxGeometry>
        </mxCell>
        <mxCell id="k_fp_--4jrFylW4d2MIr-54" style="edgeStyle=orthogonalEdgeStyle;rounded=0;orthogonalLoop=1;jettySize=auto;html=1;exitX=0;exitY=0.5;exitDx=0;exitDy=0;endArrow=classic;endFill=1;" parent="WIyWlLk6GJQsqaUBKTNV-1" source="k_fp_--4jrFylW4d2MIr-10" target="k_fp_--4jrFylW4d2MIr-0" edge="1">
          <mxGeometry relative="1" as="geometry">
            <Array as="points">
              <mxPoint x="580" y="528" />
              <mxPoint x="580" y="880" />
            </Array>
          </mxGeometry>
        </mxCell>
        <mxCell id="k_fp_--4jrFylW4d2MIr-55" style="edgeStyle=orthogonalEdgeStyle;rounded=0;orthogonalLoop=1;jettySize=auto;html=1;exitX=0;exitY=0.5;exitDx=0;exitDy=0;endArrow=classic;endFill=1;" parent="WIyWlLk6GJQsqaUBKTNV-1" source="k_fp_--4jrFylW4d2MIr-11" target="zkfFHV4jXpPFQw0GAbJ--17" edge="1">
          <mxGeometry relative="1" as="geometry">
            <Array as="points">
              <mxPoint x="600" y="476" />
              <mxPoint x="570" y="476" />
              <mxPoint x="570" y="300" />
            </Array>
          </mxGeometry>
        </mxCell>
        <mxCell id="k_fp_--4jrFylW4d2MIr-56" value="0..1" style="resizable=0;align=left;verticalAlign=bottom;labelBackgroundColor=none;fontSize=12;" parent="WIyWlLk6GJQsqaUBKTNV-1" connectable="0" vertex="1">
          <mxGeometry x="130" y="70.99714285714288" as="geometry" />
        </mxCell>
        <mxCell id="k_fp_--4jrFylW4d2MIr-57" value="0..n" style="resizable=0;align=left;verticalAlign=bottom;labelBackgroundColor=none;fontSize=12;" parent="WIyWlLk6GJQsqaUBKTNV-1" connectable="0" vertex="1">
          <mxGeometry x="137" y="256.9971428571429" as="geometry" />
        </mxCell>
        <mxCell id="k_fp_--4jrFylW4d2MIr-58" value="1" style="resizable=0;align=left;verticalAlign=bottom;labelBackgroundColor=none;fontSize=12;direction=south;" parent="WIyWlLk6GJQsqaUBKTNV-1" connectable="0" vertex="1">
          <mxGeometry x="580" y="509.9971428571429" as="geometry" />
        </mxCell>
        <mxCell id="k_fp_--4jrFylW4d2MIr-60" value="0..n" style="resizable=0;align=left;verticalAlign=bottom;labelBackgroundColor=none;fontSize=12;" parent="WIyWlLk6GJQsqaUBKTNV-1" connectable="0" vertex="1">
          <mxGeometry x="570" y="477.9971428571429" as="geometry" />
        </mxCell>
        <mxCell id="k_fp_--4jrFylW4d2MIr-61" value="0..n" style="resizable=0;align=left;verticalAlign=bottom;labelBackgroundColor=none;fontSize=12;" parent="WIyWlLk6GJQsqaUBKTNV-1" connectable="0" vertex="1">
          <mxGeometry x="570" y="529.9971428571429" as="geometry" />
        </mxCell>
        <mxCell id="xofms_eeU2WcZ_YOBVaL-0" value="" style="endArrow=block;endSize=10;endFill=0;shadow=0;strokeWidth=1;rounded=0;edgeStyle=elbowEdgeStyle;elbow=vertical;" parent="WIyWlLk6GJQsqaUBKTNV-1" source="k_fp_--4jrFylW4d2MIr-0" target="xofms_eeU2WcZ_YOBVaL-1" edge="1">
          <mxGeometry width="160" relative="1" as="geometry">
            <mxPoint x="969.9999999999995" y="310.344827586207" as="sourcePoint" />
            <mxPoint x="810" y="1000" as="targetPoint" />
          </mxGeometry>
        </mxCell>
        <mxCell id="xofms_eeU2WcZ_YOBVaL-1" value="TaskUIModel" style="swimlane;fontStyle=0;align=center;verticalAlign=top;childLayout=stackLayout;horizontal=1;startSize=30;horizontalStack=0;resizeParent=1;resizeLast=0;collapsible=1;marginBottom=0;rounded=0;shadow=0;strokeWidth=1;fillColor=#ffe6cc;strokeColor=#d79b00;" parent="WIyWlLk6GJQsqaUBKTNV-1" vertex="1">
          <mxGeometry x="150" y="840" width="320" height="146" as="geometry">
            <mxRectangle x="550" y="140" width="160" height="26" as="alternateBounds" />
          </mxGeometry>
        </mxCell>
        <mxCell id="xofms_eeU2WcZ_YOBVaL-2" value="+ string RedDotKey { get; }" style="text;align=left;verticalAlign=top;spacingLeft=4;spacingRight=4;overflow=hidden;rotatable=0;points=[[0,0.5],[1,0.5]];portConstraint=eastwest;" parent="xofms_eeU2WcZ_YOBVaL-1" vertex="1">
          <mxGeometry y="30" width="320" height="26" as="geometry" />
        </mxCell>
        <mxCell id="xofms_eeU2WcZ_YOBVaL-3" value="+ int RedDotCount { get; }" style="text;align=left;verticalAlign=top;spacingLeft=4;spacingRight=4;overflow=hidden;rotatable=0;points=[[0,0.5],[1,0.5]];portConstraint=eastwest;" parent="xofms_eeU2WcZ_YOBVaL-1" vertex="1">
          <mxGeometry y="56" width="320" height="26" as="geometry" />
        </mxCell>
        <mxCell id="xofms_eeU2WcZ_YOBVaL-4" value="+ Action&lt;string, int&gt; OnRedDotCountChanged {get; set; }" style="text;align=left;verticalAlign=top;spacingLeft=4;spacingRight=4;overflow=hidden;rotatable=0;points=[[0,0.5],[1,0.5]];portConstraint=eastwest;" parent="xofms_eeU2WcZ_YOBVaL-1" vertex="1">
          <mxGeometry y="82" width="320" height="26" as="geometry" />
        </mxCell>
        <mxCell id="xofms_eeU2WcZ_YOBVaL-5" value="" style="line;html=1;strokeWidth=1;align=left;verticalAlign=middle;spacingTop=-1;spacingLeft=3;spacingRight=3;rotatable=0;labelPosition=right;points=[];portConstraint=eastwest;" parent="xofms_eeU2WcZ_YOBVaL-1" vertex="1">
          <mxGeometry y="108" width="320" height="8" as="geometry" />
        </mxCell>
        <mxCell id="xofms_eeU2WcZ_YOBVaL-6" value="..." style="text;align=left;verticalAlign=top;spacingLeft=4;spacingRight=4;overflow=hidden;rotatable=0;points=[[0,0.5],[1,0.5]];portConstraint=eastwest;fontStyle=0" parent="xofms_eeU2WcZ_YOBVaL-1" vertex="1">
          <mxGeometry y="116" width="320" height="30" as="geometry" />
        </mxCell>
      </root>
    </mxGraphModel>
  </diagram>
</mxfile>
